<?xml version="1.0" encoding="UTF-8"?>
<!DOCTYPE svg PUBLIC "-//W3C//DTD SVG 1.1//EN" "http://www.w3.org/Graphics/SVG/1.1/DTD/svg11.dtd">
<!-- Creator: CorelDRAW X7 -->
<svg xmlns="http://www.w3.org/2000/svg" xml:space="preserve" width="8.26772in" height="11.6929in" version="1.1" style="shape-rendering:geometricPrecision; text-rendering:geometricPrecision; image-rendering:optimizeQuality; fill-rule:evenodd; clip-rule:evenodd"
viewBox="0 0 8268 11693"
 xmlns:xlink="http://www.w3.org/1999/xlink">
 <defs>
  <style type="text/css">
   <![CDATA[
    .fil1 {fill:#2B2A29}
    .fil0 {fill:url(#id0)}
   ]]>
  </style>
  <linearGradient id="id0" gradientUnits="userSpaceOnUse" x1="4523.28" y1="3547.1" x2="3423.54" y2="1466.44">
   <stop offset="0" style="stop-opacity:1; stop-color:#AD7C33"/>
   <stop offset="0.2" style="stop-opacity:1; stop-color:#AD6B20"/>
   <stop offset="0.380392" style="stop-opacity:1; stop-color:#DC8F15"/>
   <stop offset="0.509804" style="stop-opacity:1; stop-color:#F8EABF"/>
   <stop offset="0.65098" style="stop-opacity:1; stop-color:#C88A41"/>
   <stop offset="0.85098" style="stop-opacity:1; stop-color:#9B641C"/>
   <stop offset="1" style="stop-opacity:1; stop-color:#AD7C34"/>
  </linearGradient>
 </defs>
 <g id="Layer_x0020_1">
  <metadata id="CorelCorpID_0Corel-Layer"/>
  <path class="fil0" d="M3209 2986l-111 388 -124 0 309 -1102c17,-63 45,-111 83,-144 38,-33 85,-50 141,-50 58,0 109,19 152,56 38,32 67,77 88,134 -17,64 -25,132 -25,204 0,205 60,371 181,498 23,23 47,45 72,64l101 340 -285 0 -115 -388 -467 0zm29 -108l409 0 -149 -534c-9,-30 -19,-49 -27,-58 -9,-9 -20,-14 -33,-14 -10,0 -18,5 -25,15 -8,10 -15,30 -24,58l-151 533zm1571 -596c3,-52 19,-93 47,-123 32,-33 78,-49 137,-49 54,0 97,14 129,41 32,27 58,74 79,140l176 574 163 -602c15,-52 38,-91 70,-116 33,-25 76,-37 130,-37 61,0 108,17 141,52 32,35 48,86 48,153l0 939 -238 0 0 -929c0,-13 -2,-24 -7,-31 -4,-7 -10,-11 -17,-11 -9,0 -15,3 -20,8 -5,5 -9,15 -13,28l-245 872c-9,35 -20,60 -33,76 -13,15 -29,23 -49,23 -19,0 -36,-7 -49,-20 -15,-14 -26,-33 -34,-58l-262 -881c-1,-2 -2,-7 -4,-15 -4,-19 -10,-30 -18,-32l0 -2 -131 0zm165 197l0 443c-78,67 -158,117 -241,151 -83,34 -169,51 -258,51 -195,0 -354,-63 -475,-190 -121,-126 -181,-292 -181,-497 0,-196 61,-359 183,-489 122,-131 273,-196 454,-196 110,0 205,22 286,68 80,45 147,113 200,203l-78 54c-41,-79 -91,-139 -151,-179 -60,-40 -129,-60 -207,-60 -132,0 -236,55 -313,163 -77,109 -115,257 -115,445 0,180 37,321 110,421 74,100 176,151 308,151 51,0 98,-8 143,-24 44,-16 82,-39 114,-68l0 -447 221 0zm-2741 -840c809,70 834,707 803,992 -67,477 -402,823 -723,571 216,-408 405,-547 535,-586 -167,-23 -354,-83 -474,-268 -169,-260 -159,-302 -141,-709zm291 1201l0 0c48,-81 134,-117 124,-186 -93,-49 -209,-88 -330,-275 -121,-187 -159,-302 -141,-708 4,0 9,0 13,1 0,-8 1,-16 1,-24 -159,93 -196,325 -143,552 19,77 23,144 -29,214 -8,10 19,30 87,50 1,28 -16,45 -19,88 -1,9 8,18 50,38 -11,54 -4,62 39,67 13,1 -14,109 30,108 28,-1 104,-21 218,-102 83,-59 120,108 29,255 62,-54 67,-67 71,-78z"/>
  <path class="fil1" d="M7182 4104l0 -461 432 0 0 68 -360 0 0 114 236 0 0 67 -236 0 0 145 380 0 0 67 -452 0zm-613 -460l72 0 0 295c0,44 10,74 31,90 21,15 62,23 124,23 63,0 104,-8 125,-23 21,-16 31,-46 31,-90l0 -295 72 0 0 314c0,56 -18,97 -54,122 -35,25 -94,38 -175,38 -80,0 -138,-12 -173,-37 -35,-25 -53,-66 -53,-123l0 -314zm-264 446l63 77 -88 0 -46 -54c-23,2 -40,3 -48,4 -8,1 -14,1 -18,1 -82,0 -149,-23 -202,-70 -53,-46 -79,-104 -79,-174 0,-70 26,-128 79,-174 53,-46 120,-69 202,-69 83,0 151,23 204,69 53,45 79,103 79,174 0,47 -13,90 -38,127 -26,38 -62,67 -108,89zm-45 -53c37,-15 66,-37 86,-66 21,-29 31,-61 31,-97 0,-51 -19,-93 -58,-127 -39,-33 -90,-50 -151,-50 -61,0 -111,17 -149,50 -39,33 -58,76 -58,127 0,51 19,93 57,126 38,34 86,51 145,51 2,0 5,-1 9,-1 5,0 8,-1 11,-1l-47 -56 87 0 37 44zm-565 67l0 -462 73 0 0 462 -73 0zm-339 0l0 -397 -194 0 0 -64 460 0 0 64 -194 0 0 397 -72 0zm-722 -460l72 0 0 295c0,44 10,74 31,90 21,15 62,23 124,23 62,0 104,-8 125,-23 20,-16 31,-46 31,-90l0 -295 72 0 0 314c0,56 -18,97 -54,122 -36,25 -94,38 -175,38 -80,0 -138,-12 -173,-37 -36,-25 -53,-66 -53,-123l0 -314zm-401 474c-82,0 -149,-23 -202,-70 -53,-46 -79,-104 -79,-174 0,-70 26,-128 78,-174 53,-46 121,-69 203,-69 83,0 151,23 204,69 52,45 79,103 79,174 0,70 -27,129 -80,175 -52,46 -120,69 -203,69zm0 -67c62,0 112,-17 151,-50 38,-33 58,-76 58,-127 0,-51 -20,-93 -59,-127 -39,-33 -89,-50 -150,-50 -61,0 -111,17 -150,50 -38,33 -57,76 -57,127 0,51 19,94 57,127 39,33 89,50 150,50zm-951 53l0 -595 352 0c58,0 102,12 132,37 30,25 46,62 46,111 0,24 -5,45 -14,63 -10,19 -23,34 -40,46 31,18 55,41 71,67 16,27 24,57 24,92 0,55 -18,98 -54,130 -36,33 -85,49 -147,49l-370 0zm74 -360l284 0c31,0 55,-8 72,-22 16,-14 24,-34 24,-61 0,-28 -7,-49 -23,-63 -16,-14 -41,-21 -73,-21l-284 0 0 167zm0 291l311 0c34,0 60,-10 80,-30 19,-20 29,-47 29,-81 0,-34 -10,-62 -29,-82 -20,-20 -46,-30 -80,-30l-311 0 0 223zm-574 -44c-26,41 -61,73 -103,94 -43,22 -91,33 -146,33 -81,0 -147,-23 -200,-69 -52,-46 -78,-104 -78,-174 0,-70 26,-129 78,-175 53,-46 119,-69 200,-69 51,0 96,9 137,28 41,19 74,46 99,80l-57 40c-19,-26 -44,-46 -75,-61 -31,-14 -65,-21 -104,-21 -59,0 -107,17 -146,51 -39,33 -58,75 -58,126 0,51 19,93 58,126 39,34 88,51 146,51 41,0 78,-9 109,-25 31,-16 58,-41 82,-75l58 40zm-719 113l0 -462 73 0 0 462 -73 0zm-553 -215l0 215 -72 0 0 -461 72 0 0 179 323 0 0 -179 72 0 0 461 -72 0 0 -215 -323 0zm-253 25l60 44c-28,52 -65,91 -113,119 -47,28 -101,42 -161,42 -89,0 -163,-29 -221,-88 -58,-59 -87,-133 -87,-224 0,-90 29,-165 87,-224 58,-58 132,-88 220,-88 55,0 106,12 151,36 45,24 82,59 110,103l-62 45c-18,-36 -45,-64 -80,-84 -36,-20 -75,-30 -118,-30 -67,0 -123,23 -166,69 -44,45 -66,103 -66,173 0,70 22,128 66,174 43,46 99,68 166,68 46,0 88,-11 124,-34 36,-23 66,-57 90,-101z"/>
 </g>
</svg>
